<svg width="80" height="80" viewBox="0 0 80 80" fill="none" xmlns="http://www.w3.org/2000/svg">
<path d="M63.375 30.6875C60.8125 30.375 58.25 29.9375 55.75 29.3125C55.5625 28.8125 55.375 28.3125 55.125 27.8125C56.75 25.875 59 24.4375 61.5 23.8125C62.9375 23.4375 63.875 22 63.6875 20.5625L63.4375 18.8125C63.25 17.25 61.8125 16.125 60.25 16.25C57.5625 16.5 53.875 16.9375 51.4375 17.875C50.125 18.4375 49 19.1875 48 20.1875C47.875 17.25 47.8125 14.3125 47.8125 12.3125C47.8125 10.6875 46.4375 9.375 44.8125 9.375H41.1875C39.625 9.375 38.3125 10.625 38.25 12.1875C38.1875 12.75 38.1875 13.4375 38.125 14.125C38 11.3125 37.875 8.1875 37.6875 5.75C37.5625 4.1875 36.3125 2.9375 34.75 2.9375H31.0625C29.5 2.9375 28.1875 4.1875 28.125 5.75C28.0625 7.6875 27.8125 12.1875 27.375 16.75C27.3125 15.6875 27.25 14.6875 27.1875 13.75C27.125 12.1875 25.8125 10.9375 24.25 10.9375H20.4375C18.9375 10.9375 17.6875 12.0625 17.5 13.5625C16.875 19.3125 16.1875 23.8125 15.625 27.125C13.25 32.8125 13.4375 40.125 16.6875 46.375C19 51 21.0625 55.8125 22.875 60.6875C26.75 70.875 29.125 77.0625 41 77.0625C44.375 77.125 47.5625 75.875 49.9375 73.5C56.6875 66.75 56.9375 51.875 56.9375 40.375C59.0625 39.8125 61.1875 39.375 63.375 39.125C64.875 38.9375 66 37.6875 66 36.1875V33.6875C66 32.1875 64.875 30.9375 63.375 30.6875V30.6875ZM60.3125 32.5C60.125 34.0625 60.125 35.6875 60.375 37.3125C59.25 37.5 58 37.75 56.875 38.0625C56.8125 37 57 34.875 56.4375 31.75C57.75 32.0625 59.0625 32.3125 60.3125 32.5V32.5ZM60.5 18.4375C60.9375 18.375 61.3125 18.6875 61.3125 19.125L61.5625 20.875C61.625 21.25 61.375 21.625 60.9375 21.75C60.5 21.875 60 22 59.5 22.1875C59.0625 21 58.75 19.875 58.625 18.625C59.3125 18.5625 60 18.5 60.5 18.4375ZM30.1875 9.25C32.0625 9.5625 33.9375 9.5 35.8125 9.25C35.9375 12.125 36.0625 15.3125 36.1875 17.625C34 17.5625 31.75 17.625 29.5625 17.8125C29.875 14.75 30.0625 11.6875 30.1875 9.25V9.25ZM45.875 19.4375C44.0625 18.75 42.1875 18.25 40.25 18C40.3125 16.9375 40.375 16 40.375 15.0625C42.0625 15.375 43.875 15.4375 45.75 15.1875C45.75 16.4375 45.8125 17.9375 45.875 19.4375ZM41.3125 11.5625H44.9375C45.375 11.5625 45.6875 11.9375 45.75 12.3125V12.875C44 13.125 42.25 13.0625 40.5625 12.75C40.5625 12.5625 40.5625 12.375 40.625 12.25C40.5625 11.9375 40.875 11.5625 41.3125 11.5625V11.5625ZM31.1875 5.125H34.875C35.3125 5.125 35.625 5.4375 35.6875 5.875C35.6875 6.25 35.75 6.625 35.75 7.0625C34 7.375 32.1875 7.375 30.375 7.0625C30.375 6.625 30.4375 6.1875 30.4375 5.875C30.4375 5.5 30.75 5.125 31.1875 5.125ZM20.5 13.1875H24.3125C24.75 13.1875 25.0625 13.5 25.0625 13.9375C25.0625 14.125 25.0625 14.3125 25.125 14.5C23.375 14.75 21.5 14.6875 19.6875 14.3125C19.6875 14.1875 19.75 14 19.75 13.875C19.75 13.5 20.125 13.1875 20.5 13.1875V13.1875ZM19.375 16.5C21.3125 16.875 23.3125 16.9375 25.25 16.6875C25.25 17.25 25.3125 17.875 25.3125 18.4375C22.6875 19 20.375 20.375 18.5625 22.3125C18.875 20.5625 19.125 18.625 19.375 16.5V16.5ZM48.375 71.9375C46.4375 73.875 43.75 74.9375 41 74.875C30.6875 74.875 28.75 69.875 24.9375 59.9375C23.125 55 21 50.125 18.6875 45.4375C16 40.3125 15.5 34.3125 17.375 28.875C18.6875 25.125 20.75 22.75 23.875 21.3125C27.75 19.5625 36.5625 19.875 36.6875 19.875C40.0625 19.9375 43.4375 20.6875 46.5 22.0625C46.125 22.5625 45.6875 23.125 45.3125 23.6875C43 23.875 40.8125 24.5625 38.8125 25.75C35.625 24.25 29.4375 24.0625 28.6875 24.0625C28.0625 24.0625 27.5625 24.5 27.5625 25.125C27.5625 25.75 28 26.25 28.625 26.25C31.3125 26.3125 33.9375 26.625 36.5625 27.25C34.1875 29.0625 32.5625 31 30.0625 31.5C24.8125 32.625 22.875 32.375 20.25 34.375C19.75 34.75 19.6875 35.4375 20 35.875C20.375 36.375 21.0625 36.4375 21.5 36.125H21.5625C22.875 35.125 23.9375 34.8125 26 34.5C25.5625 35.9375 25.3125 37.4375 25.25 38.9375C25.25 39.5625 25.75 40 26.3125 40C26.9375 40 27.375 39.5 27.375 38.875C27.5 37.25 27.8125 35.625 28.375 34.0625C29 33.9375 29.6875 33.8125 30.5 33.625C31.4375 33.4375 32.3125 33.0625 33.125 32.625C33.5625 33.8125 33.875 34 34.4375 35.6875C34.8125 36.9375 34.625 38.25 33.9375 39.375C33.5625 39.875 33.6875 40.5625 34.1875 40.875C34.6875 41.25 35.375 41.125 35.6875 40.625C36.75 38.9375 37.0625 36.875 36.4375 35C35.625 32.5625 35.0625 32.4375 35 31.3125C37.4375 29.375 39.5625 27 43.6875 26.125C43.4375 26.5625 43.25 26.9375 43 27.375C42.6875 27.875 42.875 28.5625 43.4375 28.875C43.9375 29.1875 44.625 29 44.9375 28.4375V28.375C46.5 25.375 49.125 21.1875 52.25 19.9375C53.625 19.4375 55 19.125 56.375 18.9375C56.5625 20.375 56.875 21.625 57.4375 23.0625C54.25 24.8125 51.875 27.6875 50.6875 31.125C50.4375 31.6875 50.75 32.3125 51.3125 32.5625C51.875 32.8125 52.5 32.5 52.75 31.9375C53 31.3125 53.3125 30.625 53.625 30.0625C54.9375 34.125 54.5625 37.0625 54.625 38.8125C54.75 50.0625 54.75 65.5 48.375 71.9375V71.9375ZM63.8125 36.125C63.8125 36.5 63.5 36.875 63.125 36.875C62.9375 36.875 62.75 36.9375 62.5625 36.9375C62.3125 35.5 62.3125 34.125 62.5 32.75C62.75 32.75 62.9375 32.8125 63.125 32.8125C63.5 32.875 63.8125 33.1875 63.8125 33.5625V36.125Z" fill="#222222"/>
<path d="M52.0625 41.6875C51.4375 41.6875 50.9375 42.1875 50.9375 42.75C50.9375 43.875 50.9375 45 50.875 46.1875C50.875 46.8125 51.3125 47.3125 51.9375 47.3125C52.5625 47.3125 53 46.8125 53 46.25C53 45.0625 53.0625 43.9375 53.0625 42.8125C53.125 42.1875 52.625 41.6875 52.0625 41.6875V41.6875Z" fill="#222222"/>
<path d="M44.3751 48.625C45.2501 45 46.6251 41.625 48.0626 39.8125C48.4376 39.3125 48.3751 38.625 47.8751 38.25C47.3751 37.875 46.6876 37.9375 46.3126 38.4375C45.4376 39.6875 44.6876 41 44.1251 42.375C42.4376 42.625 40.4376 43.75 38.5626 45.1875C35.6876 44 30.8751 43.75 30.2501 43.75C29.6251 43.75 29.1876 44.25 29.1876 44.875C29.1876 45.5 29.6876 45.9375 30.3126 45.9375C32.4376 46 34.6251 46.3125 36.6876 46.8125C36.0626 47.375 35.5001 48 34.9376 48.6875C33.3751 50.5 31.0626 51.4375 28.6876 51.3125C28.0626 51.25 27.5626 51.6875 27.5001 52.3125C27.4376 52.9375 27.8751 53.5 28.5001 53.5C30.3126 53.5625 31.9376 53.25 33.5001 52.5625C33.5626 54.125 33.4376 55.75 33.4376 56.5C33.4376 57.9375 35.6251 57.9375 35.6251 56.4375C35.6251 55.4375 35.8751 53.8125 35.5001 51.1875C35.8751 50.8125 36.2501 50.4375 36.6251 50.0625C38.3751 48 40.6251 46.25 43.1876 45C41.8751 48.9375 41.0626 53.625 41.3751 57.4375C41.8751 63.1875 38.5001 65.5 37.8126 69.125C37.7501 69.75 38.1876 70.2501 38.7501 70.3126C39.3751 70.3751 39.8751 69.9375 39.9376 69.375C40.5001 67.0625 41.9376 66.0001 43.1251 62.0626C44.0001 63.1251 44.7501 64.3125 45.3751 65.5626C45.6251 66.1251 46.2501 66.3751 46.8126 66.1251C47.3751 65.8751 47.6251 65.25 47.3751 64.6875C46.4376 62.6875 45.1251 60.9375 43.5626 59.375C43.6251 58.6875 43.6251 58 43.5626 57.3125C43.4376 55.375 43.5626 53.5 43.8751 51.625C45.0001 52.9375 46.8751 55 47.1876 56.5625C47.3126 57.125 47.8751 57.5 48.5001 57.375C49.0626 57.25 49.4376 56.6875 49.3126 56.125C48.7501 53.3125 45.8751 50.875 44.3751 48.625V48.625Z" fill="#222222"/>
</svg>
