<svg width="80" height="80" viewBox="0 0 80 80" fill="none" xmlns="http://www.w3.org/2000/svg">
<path d="M54.8126 68.375L46.5626 65.8125C45.1876 65.375 44.4376 64 44.7501 62.625L52.3126 33.375C52.8751 31.1875 52.5626 28.8125 51.3751 26.875L37.6251 3.5C37.4376 3.1875 37.0626 2.9375 36.6876 2.9375H9.56261C8.87511 2.9375 8.31261 3.625 8.50011 4.3125C11.5001 16.125 18.0626 21.25 23.8126 25.8125C26.6876 28.0625 29.4376 30.25 31.4376 33.0625C29.1251 38.6875 29.0626 46.0625 29.0001 52.625C28.9376 57.8125 28.9376 62.75 27.6876 65.1875C25.8126 68.8125 25.5626 72.25 27.0001 74.5625C28.0001 76.1875 29.7501 77.125 31.6251 77.0625C35.8751 77.0625 36.9376 76 40.6251 75.9375C42.5001 75.875 44.3751 76.125 46.1876 76.5625C48.8126 77.1875 50.6876 77.0625 50.8751 77.0625C53.5001 77.0625 55.8126 75.5 56.8751 73.125C57.8126 71.1875 56.8126 69 54.8126 68.375V68.375ZM54.9376 72.1875C54.1876 73.75 52.6251 74.8125 50.8751 74.8125C49.2501 74.8125 47.9376 74.6875 46.6876 74.375C44.6876 73.875 42.6876 73.6875 40.6251 73.6875C36.5626 73.6875 35.6251 74.75 31.6251 74.8125C30.5001 74.875 29.4376 74.3125 28.8751 73.375C27.8751 71.75 28.1251 69 29.6251 66.125C31.1251 63.25 31.1251 58.3125 31.1876 52.5625C31.2501 46 31.3126 38.5625 33.6876 33.3125C33.8126 33 33.8126 32.5625 33.6251 32.25C31.4376 28.9375 28.4376 26.5625 25.2501 24C19.7501 19.625 14.0001 15.1875 11.0626 5.0625H36.0626L49.5001 27.8125C50.3751 29.25 50.6251 31 50.1876 32.6875L42.6876 62.0625C42.0626 64.5625 43.5001 67.125 45.9376 67.875L54.1876 70.4375C54.9376 70.6875 55.3126 71.5 54.9376 72.1875V72.1875Z" fill="#222222"/>
<path d="M17.3751 10.625C17.0626 10.125 16.4376 9.93752 15.8751 10.1875C15.3751 10.5 15.1876 11.125 15.4376 11.6875C15.8751 12.4375 16.5001 13.375 17.1251 14.3125C17.5001 14.8125 18.1876 14.875 18.6876 14.5C19.1251 14.125 19.2501 13.5 18.9376 13C18.3751 12.25 17.8751 11.4375 17.3751 10.625Z" fill="#222222"/>
<path d="M35.0001 27.6874C34.4376 29.3124 35.2501 31.1875 36.9376 31.75C38.1251 32.1875 39.4376 31.875 40.3126 30.9375L41.1876 30L42.3751 30.3125C44.0626 30.75 45.7501 29.6875 46.1876 27.9999C46.5626 26.4374 45.7501 24.8749 44.2501 24.3124L42.1251 23.4999L32.3126 8.49995C32.0001 7.99995 31.3126 7.81245 30.8126 8.12495C30.3126 8.43745 30.1251 9.12495 30.5001 9.68745L40.5001 24.9999C40.6251 25.1874 40.8126 25.3124 41.0001 25.4374L43.5001 26.4374C43.8751 26.5624 44.1251 26.9374 44.1251 27.3124C44.1251 27.9374 43.5626 28.375 42.9376 28.25L41.1251 27.8124C40.7501 27.7499 40.3126 27.8125 40.0626 28.125L38.7501 29.4374C38.3751 29.8124 37.7501 29.875 37.3751 29.5C37.0626 29.25 37.0001 28.8125 37.1251 28.4375L37.9376 26.2499C38.0626 25.8749 38.0001 25.4999 37.7501 25.1874L28.8126 13.5624C28.4376 13.0624 27.7501 12.9999 27.2501 13.3749C26.8126 13.7499 26.6876 14.3749 27.0626 14.8749L35.6251 26.0624L35.0001 27.6874Z" fill="#222222"/>
<path d="M45.9377 37.3751C47.1252 36.1251 47.1252 34.1251 45.8752 32.9376C44.7502 31.8126 42.9377 31.7501 41.6877 32.7501L40.7502 33.5001L39.5627 33.0001C37.9377 32.3751 36.0627 33.1251 35.4377 34.7501C34.9377 35.9376 35.2502 37.2501 36.1252 38.1876L37.3752 39.4376L34.1877 59.5001C34.1252 60.1251 34.5002 60.6251 35.1252 60.7501C35.6877 60.8126 36.2502 60.4376 36.3752 59.8751L39.6877 39.2501C39.7502 38.9376 39.6252 38.5626 39.3752 38.3126L37.7502 36.6251C37.3752 36.2501 37.3752 35.6251 37.7502 35.2501C38.0627 35.0001 38.4377 34.8751 38.8127 35.0626L40.6252 35.8126C41.0002 35.9376 41.3752 35.8751 41.6877 35.6876L43.1252 34.5626C43.5627 34.2501 44.1252 34.3126 44.5002 34.7501C44.8127 35.1251 44.7502 35.6876 44.4377 36.0001L42.5627 37.9376C42.4377 38.1251 42.3127 38.3126 42.2502 38.5001L39.5002 56.0001C39.3752 56.6251 39.8127 57.1876 40.4377 57.2501C41.0627 57.3751 41.6252 56.9376 41.6877 56.3126L44.4377 39.1876L45.9377 37.3751Z" fill="#222222"/>
<path d="M71.5002 33.4375C71.3752 32.875 70.7502 32.5 70.1877 32.625L64.5627 33.9375L63.6877 32.0624C63.4377 31.6249 62.9377 31.375 62.4377 31.5L57.2502 32.75C56.6877 32.875 56.3127 33.5 56.4377 34.0625C56.5627 34.625 57.1877 35 57.7502 34.875L62.0627 33.8124L62.9377 35.6875C63.1877 36.125 63.6877 36.375 64.1877 36.3125L70.6877 34.8125C71.2502 34.625 71.6252 34 71.5002 33.4375V33.4375Z" fill="#222222"/>
<path d="M56.3751 25.625C56.8751 26 57.5626 25.875 57.9376 25.4375L60.6251 21.875L62.5001 22.75C62.9376 23 63.5001 22.8125 63.8126 22.4375L67.9376 17.1875C68.3126 16.75 68.2501 16 67.8126 15.625C67.3126 15.25 66.6251 15.3125 66.2501 15.8125L62.6251 20.375L60.7501 19.5C60.3126 19.25 59.7501 19.4375 59.4376 19.8125L56.1876 24.0625C55.8126 24.5625 55.8751 25.25 56.3751 25.625V25.625Z" fill="#222222"/>
<path d="M65.5 25.1875L63.25 27.375L61.5 26.25C61.0625 25.9375 60.5 26 60.125 26.375L58.0625 28.5C57.625 28.9375 57.625 29.625 58.0625 30.0625C58.5 30.5 59.1875 30.5 59.5625 30.0625L61 28.5625L62.75 29.6875C63.1875 29.9375 63.75 29.9375 64.125 29.5625L67 26.75C67.4375 26.3125 67.4375 25.625 67.0625 25.1875C66.6875 24.75 65.9375 24.75 65.5 25.1875Z" fill="#222222"/>
</svg>
