<svg width="80" height="80" viewBox="0 0 80 80" fill="none" xmlns="http://www.w3.org/2000/svg">
<path d="M65.5692 22.4156C63.218 22.4156 61.3052 24.3266 61.3052 26.6753C61.3052 29.0266 63.218 30.9396 65.5692 30.9396C67.918 30.9396 69.8289 29.0266 69.8289 26.6753C69.8288 24.3266 67.918 22.4156 65.5692 22.4156ZM65.5692 28.5958C64.5105 28.5958 63.6489 27.7342 63.6489 26.6753C63.6489 25.6189 64.5105 24.7594 65.5692 24.7594C66.6256 24.7594 67.4852 25.6189 67.4852 26.6753C67.485 27.7342 66.6255 28.5958 65.5692 28.5958Z" fill="#222222"/>
<path d="M53.727 22.4156C51.3757 22.4156 49.4629 24.3266 49.4629 26.6753C49.4629 29.0266 51.3757 30.9396 53.727 30.9396C56.0757 30.9396 57.9866 29.0266 57.9866 26.6753C57.9865 24.3266 56.0757 22.4156 53.727 22.4156ZM53.727 28.5958C52.6682 28.5958 51.8066 27.7342 51.8066 26.6753C51.8066 25.6189 52.6682 24.7594 53.727 24.7594C54.7834 24.7594 55.6429 25.6189 55.6429 26.6753C55.6427 27.7342 54.7832 28.5958 53.727 28.5958Z" fill="#222222"/>
<path d="M67.8652 6.16235H51.4309C50.3456 6.16235 49.4626 7.04517 49.4626 8.13048V15.9917C49.4626 17.077 50.3455 17.96 51.4309 17.96H57.1022C57.7495 17.96 64 17.4352 64 16.788C64 16.1408 57.7495 15.6163 57.1022 15.6163H51.8064V8.5061H67.485V15.6161L57.1022 15.6163C56.4548 15.6163 61.628 16.1408 61.628 16.788C61.628 17.4352 56.4548 17.96 57.1022 17.96L67.8652 17.9599C68.948 17.9599 69.8287 17.0769 69.8287 15.9916V8.13063C69.8287 7.04532 68.948 6.16235 67.8652 6.16235Z" fill="#222222"/>
<path d="M68.9311 0H50.3605C46.4652 0 43.2961 3.16906 43.2961 7.06438V29.4447C43.2961 36.0364 48.646 41.4009 55.2314 41.4272V47.6183H38.962C39.8356 44.9925 39.5805 42.6341 39.1514 41.0044C38.5003 38.5319 37.0808 36.3461 35.2555 35.0066C34.0967 34.1581 32.6158 33.9714 31.3902 34.5187C30.1486 35.0734 29.3467 36.3022 29.1899 37.8909C28.8117 41.7694 27.6502 44.3355 25.6394 45.7355C24.0777 46.8216 20.9114 47.578 19.4953 47.6181H16.306V47.1134C16.306 46.1892 15.556 45.4372 14.6342 45.4372H5.68064C4.75643 45.4372 4.00439 46.1891 4.00439 47.1134V58.4739C4.00439 59.1211 4.52908 59.6458 5.17627 59.6458C5.82346 59.6458 6.34814 59.1211 6.34814 58.4739V47.7811H13.9622V75.2009H6.34814V58.4739C6.34814 57.8267 5.64719 57 5 57C4.35281 57 4 57.3528 4 58C4 58.6472 4.00439 75.8686 4.00439 75.8686C4.00439 76.7928 4.75627 77.5448 5.68064 77.5448H14.6344C15.5561 77.5448 16.3061 76.793 16.3061 75.8686V75.3638H18.7927C20.7772 75.3638 21.8078 76.1562 23.1125 77.1597C24.5467 78.2627 26.3317 79.6353 29.6464 79.9931C29.6883 79.9977 29.7302 79.9998 29.7722 79.9998H40.7166H50.6346C52.6033 79.9998 53.8052 79.1612 54.4667 78.4578C55.3122 77.5589 55.7778 76.3572 55.7778 75.0744C55.7778 73.9978 55.4358 72.9156 54.7655 72.0408C56.6492 71.2159 57.6241 69.382 57.6241 67.5636C57.6241 66.4863 57.2816 65.4034 56.6105 64.5281C57.3021 64.2241 57.8086 63.8128 58.1605 63.4388C59.006 62.5398 59.4716 61.3381 59.4716 60.0553C59.4716 59.1573 59.2328 58.2558 58.765 57.4736H63.5916C66.9681 57.4736 68.7349 54.9947 68.7349 52.5458C68.7349 50.2144 67.1322 47.8572 64.0644 47.6366V41.4269C70.6478 41.3983 75.9952 36.0347 75.9952 29.4445V7.06438C75.9955 3.16906 72.8264 0 68.9311 0ZM61.721 47.8966C61.721 49.0384 60.7902 49.9673 59.646 49.9673C58.5041 49.9673 57.5752 49.0384 57.5752 47.8966V35.6466H61.721V47.8966ZM52.7596 76.8522C52.2649 77.3781 51.5302 77.6562 50.6346 77.6562H40.7166C38.7827 77.6562 37.917 76.3595 37.917 75.0745C37.917 74.3906 38.1566 73.7594 38.5916 73.2967C39.0863 72.7708 39.8211 72.4927 40.7166 72.4927H50.6346C52.5685 72.4927 53.4341 73.7894 53.4341 75.0744C53.4342 75.7584 53.1946 76.3897 52.7596 76.8522ZM52.4794 70.1491H40.7167C38.7817 70.1491 37.9155 68.8506 37.9155 67.5639C37.9155 66.8797 38.1552 66.248 38.5903 65.7853C39.0852 65.2591 39.8205 64.9811 40.7167 64.9811H52.4794C54.4144 64.9811 55.2805 66.2783 55.2805 67.5639C55.2805 68.8506 54.4144 70.1491 52.4794 70.1491ZM57.128 60.0555C57.128 61.3405 56.2624 62.6372 54.3285 62.6372H40.7167C38.7817 62.6372 37.9155 61.3398 37.9155 60.0542C37.9155 59.3706 38.155 58.7397 38.59 58.2775C39.0849 57.7516 39.8203 57.4736 40.7166 57.4736H54.3283C56.2624 57.4738 57.128 58.7705 57.128 60.0555ZM66.3913 52.5459C66.3913 53.8322 65.5256 55.13 63.5917 55.13H40.7167C37.3391 55.13 35.5717 57.6072 35.5717 60.0544C35.5717 61.452 36.1486 62.8586 37.2713 63.8092C36.1486 64.7598 35.5717 66.1664 35.5717 67.5639C35.5717 68.9633 36.1497 70.3717 37.2742 71.3228C37.1281 71.4463 36.9977 71.5706 36.8846 71.6911C36.0391 72.59 35.5735 73.7917 35.5735 75.0745C35.5735 75.9725 35.8122 76.8741 36.28 77.6562H29.8369C27.218 77.3603 25.9177 76.3603 24.5413 75.3019C23.0827 74.18 21.5742 73.02 18.7925 73.02H16.306V49.962H19.6021C21.0936 49.9478 24.9895 49.0423 26.9781 47.6594C29.5872 45.8428 31.0736 42.7219 31.5224 38.1198C31.5739 37.5981 31.7586 36.9213 32.3461 36.6586C32.7983 36.4564 33.3966 36.5503 33.8697 36.8967C36.7067 38.9788 38.388 43.913 36.1572 48.2544C35.9705 48.6177 35.9864 49.0519 36.1994 49.4005C36.4122 49.7491 36.7911 49.9617 37.1996 49.9617H55.7456C56.488 51.3577 57.9572 52.3108 59.6455 52.3108C61.3363 52.3108 62.8075 51.3567 63.5502 49.9597C63.5639 49.9602 63.5775 49.9617 63.5914 49.9617C65.5256 49.962 66.3913 51.2598 66.3913 52.5459ZM73.6517 29.4447C73.6517 34.7425 69.3558 39.0547 64.0647 39.0833V35.2089C64.0647 34.1578 63.2096 33.3027 62.1586 33.3027H57.1333C56.0846 33.3027 55.2314 34.1578 55.2314 35.2089V39.0834C49.9383 39.0572 45.6399 34.7441 45.6399 29.4447V7.06438C45.6399 4.46141 47.7575 2.34375 50.3605 2.34375H68.9313C71.5342 2.34375 73.6519 4.46141 73.6519 7.06438L73.6517 29.4447Z" fill="#222222"/>
</svg>
