<svg width="174" height="50" viewBox="0 0 174 50" fill="none" xmlns="http://www.w3.org/2000/svg">
<g clip-path="url(#clip0)">
<path d="M76.4618 34.0119C76.2713 33.3895 76.0549 32.7498 75.8125 32.0928C75.5874 31.4359 75.3623 30.7789 75.1372 30.1219H68.1246C67.8995 30.7789 67.6657 31.4359 67.4233 32.0928C67.1982 32.7498 66.9904 33.3895 66.8 34.0119H62.5924C63.2677 32.0756 63.9084 30.2861 64.5144 28.6437C65.1204 27.0012 65.7091 25.4538 66.2805 24.0016C66.8692 22.5493 67.4406 21.1748 67.9947 19.8781C68.5661 18.5641 69.1548 17.2848 69.7608 16.0399H73.6308C74.2195 17.2848 74.7995 18.5641 75.3709 19.8781C75.9423 21.1748 76.5137 22.5493 77.0851 24.0016C77.6738 25.4538 78.2712 27.0012 78.8772 28.6437C79.4833 30.2861 80.1239 32.0756 80.7992 34.0119H76.4618ZM71.6049 20.1115C71.5183 20.3709 71.3885 20.7253 71.2153 21.1748C71.0422 21.6243 70.843 22.143 70.6179 22.7308C70.3928 23.3186 70.1418 23.967 69.8647 24.6758C69.605 25.3847 69.3366 26.1281 69.0596 26.9061H74.1762C73.8991 26.1281 73.6308 25.3847 73.371 24.6758C73.1113 23.967 72.8602 23.3186 72.6178 22.7308C72.3927 22.143 72.1936 21.6243 72.0205 21.1748C71.8473 20.7253 71.7088 20.3709 71.6049 20.1115Z" fill="#59CFD1"/>
<path d="M91.6083 34.375C90.3443 34.375 89.2534 34.2021 88.3357 33.8563C87.418 33.4933 86.6562 33.0005 86.0501 32.3781C85.4614 31.7384 85.0199 30.9863 84.7255 30.1219C84.4485 29.2401 84.31 28.272 84.31 27.2173V16.0399H88.3617V26.8802C88.3617 27.6063 88.4396 28.2287 88.5954 28.7474C88.7686 29.2488 88.9937 29.6637 89.2707 29.9922C89.5651 30.3034 89.9114 30.5282 90.3096 30.6665C90.7252 30.8048 91.1754 30.874 91.6602 30.874C92.6472 30.874 93.4437 30.5714 94.0497 29.9663C94.673 29.3612 94.9847 28.3325 94.9847 26.8802V16.0399H99.0364V27.2173C99.0364 28.272 98.8892 29.2401 98.5949 30.1219C98.3005 31.0036 97.8503 31.7644 97.2443 32.404C96.6383 33.0265 95.8678 33.5105 94.9328 33.8563C93.9977 34.2021 92.8896 34.375 91.6083 34.375Z" fill="#59CFD1"/>
<path d="M109.79 30.9258C110.361 30.9258 110.829 30.8826 111.192 30.7962C111.573 30.6924 111.876 30.5628 112.101 30.4072C112.327 30.2343 112.482 30.0354 112.569 29.8107C112.656 29.5859 112.699 29.3352 112.699 29.0586C112.699 28.4708 112.422 27.9867 111.868 27.6063C111.314 27.2087 110.361 26.7851 109.011 26.3356C108.422 26.1281 107.833 25.8947 107.245 25.6354C106.656 25.3587 106.128 25.0216 105.66 24.624C105.193 24.209 104.812 23.7163 104.517 23.1457C104.223 22.5579 104.076 21.8491 104.076 21.0192C104.076 20.1893 104.232 19.4459 104.543 18.7889C104.855 18.1146 105.297 17.5441 105.868 17.0773C106.439 16.6105 107.132 16.2561 107.946 16.014C108.76 15.7547 109.677 15.625 110.699 15.625C111.911 15.625 112.959 15.7547 113.842 16.014C114.725 16.2733 115.452 16.5586 116.023 16.8698L114.855 20.0596C114.352 19.8003 113.79 19.5756 113.166 19.3854C112.56 19.1779 111.824 19.0742 110.959 19.0742C109.989 19.0742 109.288 19.2125 108.855 19.4891C108.439 19.7484 108.232 20.1547 108.232 20.708C108.232 21.0365 108.309 21.3131 108.465 21.5379C108.621 21.7626 108.838 21.9701 109.115 22.1603C109.409 22.3332 109.738 22.4974 110.102 22.653C110.482 22.7913 110.898 22.9383 111.348 23.0939C112.283 23.4397 113.097 23.7854 113.79 24.1312C114.482 24.4597 115.054 24.8487 115.504 25.2982C115.971 25.7478 116.318 26.2751 116.543 26.8802C116.768 27.4853 116.88 28.2201 116.88 29.0845C116.88 30.7616 116.292 32.0669 115.114 33.0005C113.937 33.9168 112.162 34.375 109.79 34.375C108.993 34.375 108.275 34.3231 107.634 34.2194C106.994 34.133 106.422 34.0206 105.92 33.8823C105.435 33.7439 105.011 33.597 104.647 33.4414C104.301 33.2858 104.007 33.1388 103.764 33.0005L104.907 29.7848C105.444 30.0787 106.102 30.3466 106.881 30.5887C107.677 30.8134 108.647 30.9258 109.79 30.9258Z" fill="#59CFD1"/>
<path d="M121.946 34.0119V16.0399H134.101V19.4372H125.998V22.9642H133.192V26.2837H125.998V30.6146H134.698V34.0119H121.946Z" fill="#59CFD1"/>
<path d="M151.722 34.0119C150.562 31.9545 149.307 29.9231 147.956 27.9175C146.605 25.912 145.168 24.0188 143.645 22.2381V34.0119H139.645V16.0399H142.943C143.515 16.6105 144.147 17.3107 144.839 18.1406C145.532 18.9704 146.233 19.8608 146.943 20.8117C147.67 21.7453 148.389 22.7222 149.099 23.7422C149.809 24.745 150.475 25.7132 151.099 26.6468V16.0399H155.124V34.0119H151.722Z" fill="#59CFD1"/>
<path d="M166.133 30.9258C166.705 30.9258 167.172 30.8826 167.536 30.7962C167.917 30.6924 168.22 30.5628 168.445 30.4072C168.67 30.2343 168.826 30.0354 168.912 29.8107C168.999 29.5859 169.042 29.3352 169.042 29.0586C169.042 28.4708 168.765 27.9867 168.211 27.6063C167.657 27.2087 166.705 26.7851 165.354 26.3356C164.765 26.1281 164.177 25.8947 163.588 25.6354C162.999 25.3587 162.471 25.0216 162.004 24.624C161.536 24.209 161.155 23.7163 160.861 23.1457C160.566 22.5579 160.419 21.8491 160.419 21.0192C160.419 20.1893 160.575 19.4459 160.887 18.7889C161.198 18.1146 161.64 17.5441 162.211 17.0773C162.783 16.6105 163.475 16.2561 164.289 16.014C165.103 15.7547 166.021 15.625 167.042 15.625C168.254 15.625 169.302 15.7547 170.185 16.014C171.068 16.2733 171.795 16.5586 172.367 16.8698L171.198 20.0596C170.696 19.8003 170.133 19.5756 169.51 19.3854C168.904 19.1779 168.168 19.0742 167.302 19.0742C166.332 19.0742 165.631 19.2125 165.198 19.4891C164.783 19.7484 164.575 20.1547 164.575 20.708C164.575 21.0365 164.653 21.3131 164.809 21.5379C164.964 21.7626 165.181 21.9701 165.458 22.1603C165.752 22.3332 166.081 22.4974 166.445 22.653C166.826 22.7913 167.241 22.9383 167.692 23.0939C168.627 23.4397 169.44 23.7854 170.133 24.1312C170.826 24.4597 171.397 24.8487 171.847 25.2982C172.315 25.7478 172.661 26.2751 172.886 26.8802C173.111 27.4853 173.224 28.2201 173.224 29.0845C173.224 30.7616 172.635 32.0669 171.458 33.0005C170.28 33.9168 168.505 34.375 166.133 34.375C165.337 34.375 164.618 34.3231 163.977 34.2194C163.337 34.133 162.765 34.0206 162.263 33.8823C161.778 33.7439 161.354 33.597 160.991 33.4414C160.644 33.2858 160.35 33.1388 160.108 33.0005L161.25 29.7848C161.787 30.0787 162.445 30.3466 163.224 30.5887C164.021 30.8134 164.99 30.9258 166.133 30.9258Z" fill="#59CFD1"/>
<path d="M25.037 0C25.037 0 26.7885 12.6069 32.1185 17.9289C37.4484 23.251 50.0739 25 50.0739 25C50.0739 25 37.4484 26.749 32.1185 32.0711C26.7885 37.3931 25.037 50 25.037 50C25.037 50 23.2854 37.3931 17.9554 32.0711C12.6255 26.749 0 25 0 25C0 25 12.6255 23.251 17.9554 17.9289C23.2854 12.6069 25.037 0 25.037 0Z" fill="url(#paint0_linear)"/>
</g>
<defs>
<linearGradient id="paint0_linear" x1="41.311" y1="41.125" x2="17.6882" y2="15.9652" gradientUnits="userSpaceOnUse">
<stop offset="0.00360794" stop-color="#6BE061"/>
<stop offset="1" stop-color="#59CFD1"/>
</linearGradient>
<clipPath id="clip0">
<rect width="173.256" height="50" fill="white"/>
</clipPath>
</defs>
</svg>
