<svg width="80" height="80" viewBox="0 0 80 80" fill="none" xmlns="http://www.w3.org/2000/svg">
<g clip-path="url(#clip0)">
<path d="M66.9875 9.88156C60.6152 3.50937 52.1428 0 43.1314 0C34.12 0 25.6474 3.50937 19.2752 9.88156C12.9688 16.1881 9.46644 24.5508 9.39487 33.4584L3.2555 45.7372C2.98113 46.2859 3.17534 46.9534 3.70175 47.2691L9.39378 50.6844V68.8062C9.39378 69.4547 9.91941 69.9805 10.568 69.9805H21.9183V78.8259C21.9183 79.4744 22.4439 80.0002 23.0925 80.0002C23.7411 80.0002 24.2667 79.4744 24.2667 78.8259V68.8062C24.2667 68.1578 23.7411 67.632 23.0925 67.632H11.7419V50.0195C11.7419 49.6072 11.5255 49.2248 11.1718 49.0127L5.84191 45.8147L11.6178 34.2628C11.6994 34.0997 11.7419 33.9202 11.7419 33.7377C11.7419 16.4295 25.8232 2.34828 43.1313 2.34828C60.4394 2.34828 74.5206 16.4295 74.5206 33.7377C74.5206 43.4638 70.12 52.482 62.4472 58.4808C62.1625 58.7033 61.9961 59.0445 61.9961 59.4059V78.8258C61.9961 79.4742 62.5217 80 63.1703 80C63.8189 80 64.3446 79.4742 64.3446 78.8258V59.9723C72.3121 53.5277 76.8691 43.9992 76.8691 33.7378C76.8691 24.7261 73.3599 16.2538 66.9875 9.88156Z" fill="#222222"/>
<path d="M69.0103 21.5097L64.3241 16.8235C63.8653 16.3649 63.122 16.3649 62.6635 16.8235C62.2049 17.2821 62.2049 18.0255 62.6635 18.4839L66.5194 22.3397L64.5083 24.3508C64.2897 23.9621 64.0174 23.6018 63.6964 23.2808C62.246 21.8302 59.9786 21.4272 58.1186 22.2988C57.6005 22.5416 57.1269 22.8763 56.7224 23.2808C55.2717 24.7313 54.8688 26.9985 55.7402 28.8586C55.983 29.3768 56.3177 29.8503 56.7222 30.2549C57.0431 30.5758 57.4035 30.848 57.7922 31.0668L55.7811 33.0778L52.3921 29.6886C51.688 28.985 50.4442 29.4621 50.3894 30.4543C50.3146 31.8058 49.1638 32.8935 47.8108 32.8935C47.1208 32.8935 46.4721 32.6249 45.9841 32.1369C44.9885 31.1411 44.9885 29.4796 45.9841 28.4838C46.4341 28.0338 47.0317 27.7668 47.6671 27.7318C48.6585 27.6768 49.1364 26.4332 48.4327 25.7291L45.0435 22.3399L55.7814 11.6019L58.5021 14.3225C58.9608 14.7811 59.7041 14.7811 60.1627 14.3225C60.6213 13.8639 60.6213 13.1205 60.1627 12.6621L56.6117 9.11128C56.153 8.65269 55.4097 8.65269 54.9511 9.11128L42.5527 21.5099C42.0941 21.9685 42.0941 22.7119 42.5527 23.1703L45.3941 26.0118C45.0053 26.2303 44.645 26.5027 44.3241 26.8236C42.8733 28.2741 42.4702 30.5413 43.3419 32.4014C43.5847 32.9196 43.9194 33.3932 44.3239 33.7977C45.2553 34.7293 46.4938 35.2421 47.8111 35.2421C49.1285 35.2421 50.3667 34.7293 51.2983 33.7977C51.6192 33.4768 51.8913 33.1163 52.11 32.7277L54.9511 35.5691C55.4036 36.0214 56.1592 36.0214 56.6117 35.5691L60.8313 31.3496C61.5353 30.6457 61.0577 29.4019 60.066 29.3469C59.4306 29.3119 58.8331 29.0447 58.3831 28.5949C57.3877 27.5993 57.3877 25.9374 58.3833 24.9418C59.3789 23.9461 61.0406 23.9463 62.0364 24.9418C62.4863 25.3916 62.7533 25.9891 62.7885 26.6244C62.8433 27.616 64.0871 28.0938 64.7911 27.39L69.0106 23.1705C69.4689 22.7116 69.4689 21.9682 69.0103 21.5097Z" fill="#222222"/>
<path d="M55.6557 42.5831H51.6376C51.7581 42.1536 51.8201 41.7063 51.8201 41.2524C51.8201 38.5331 49.6078 36.3208 46.8886 36.3208C44.1693 36.3208 41.957 38.5331 41.957 41.2524C41.957 41.7063 42.0192 42.1535 42.1395 42.5831H39.2954V37.79C39.2954 36.7974 38.0803 36.251 37.3381 36.9152C36.8642 37.3395 36.2525 37.5733 35.6165 37.5733C34.1921 37.5733 33.0334 36.4144 33.0334 34.9902C33.0334 33.566 34.1923 32.407 35.6165 32.407C36.2526 32.407 36.8643 32.6408 37.3381 33.0652C38.0803 33.7294 39.2954 33.1833 39.2954 32.1905V26.223C39.2954 25.5745 38.7698 25.0488 38.1212 25.0488H20.5873C19.9387 25.0488 19.4131 25.5745 19.4131 26.223V61.2914C19.4131 61.9399 19.9387 62.4656 20.5873 62.4656H55.6557C56.3043 62.4656 56.83 61.9399 56.83 61.2914V43.7574C56.83 43.1089 56.3042 42.5831 55.6557 42.5831ZM21.7615 27.3972H36.9475V30.2414C36.5181 30.1211 36.0706 30.0588 35.6167 30.0588C32.8975 30.0588 30.6851 32.2711 30.6851 34.9903C30.6851 37.7095 32.8975 39.9219 35.6167 39.9219C36.0706 39.9219 36.5179 39.8595 36.9475 39.7392V42.5835H32.1543C31.1618 42.5835 30.615 43.7986 31.2795 44.5406C31.7039 45.0147 31.9376 45.6263 31.9376 46.2624C31.9376 47.6867 30.7789 48.8455 29.3545 48.8455C27.9301 48.8455 26.7714 47.6867 26.7714 46.2624C26.7714 45.6263 27.0051 45.0147 27.4295 44.5406C28.094 43.7986 27.5475 42.5835 26.5546 42.5835H21.7615V27.3972ZM37.6423 54.2524C37.2196 54.4413 36.9473 54.8613 36.9473 55.3242V60.1174H21.7614V44.9314H24.6054C24.4851 45.361 24.4229 45.8083 24.4229 46.2622C24.4229 48.9814 26.6353 51.1938 29.3545 51.1938C32.0737 51.1938 34.2861 48.9814 34.2861 46.2622C34.2861 45.8083 34.2239 45.3611 34.1036 44.9314H36.9476V49.7245C36.9476 50.7172 38.1628 51.2638 38.905 50.5992C39.3789 50.175 39.9906 49.9411 40.6267 49.9411C42.0511 49.9411 43.2098 51.1 43.2098 52.5242C43.2098 53.9486 42.0509 55.1074 40.6267 55.1074C39.9906 55.1074 39.3789 54.8736 38.905 54.4492C38.5596 54.1406 38.0648 54.0636 37.6423 54.2524ZM54.4817 60.1174H39.2957V57.2731C39.7251 57.3936 40.1726 57.4558 40.6265 57.4558C43.3457 57.4558 45.5581 55.2435 45.5581 52.5242C45.5581 49.805 43.3457 47.5927 40.6265 47.5927C40.1726 47.5927 39.7253 47.655 39.2957 47.7753V44.9311H44.0889C45.0815 44.9311 45.6281 43.7161 44.9637 42.9738C44.5393 42.4997 44.3056 41.8883 44.3056 41.252C44.3056 39.8277 45.4645 38.6689 46.8887 38.6689C48.3129 38.6689 49.4718 39.8278 49.4718 41.252C49.4718 41.8883 49.2381 42.4997 48.8137 42.9738C48.1495 43.716 48.6957 44.9311 49.6886 44.9311H54.4817V60.1174V60.1174Z" fill="#222222"/>
</g>
<defs>
<clipPath id="clip0">
<rect width="80" height="80" fill="white"/>
</clipPath>
</defs>
</svg>
